<svg width="16" height="16" viewBox="0 0 16 16" fill="none" xmlns="http://www.w3.org/2000/svg">
<path d="M9.3315 2.6665C9.57202 2.6665 9.80808 2.73156 10.0146 2.85479C10.2212 2.97803 10.3906 3.15484 10.5048 3.3665L10.8288 3.9665C10.9431 4.17817 11.1125 4.35498 11.319 4.47821C11.5256 4.60145 11.7616 4.66651 12.0022 4.6665H13.3335C13.6871 4.6665 14.0263 4.80698 14.2763 5.05703C14.5264 5.30708 14.6668 5.64622 14.6668 5.99984V11.9998C14.6668 12.3535 14.5264 12.6926 14.2763 12.9426C14.0263 13.1927 13.6871 13.3332 13.3335 13.3332H2.66683C2.31321 13.3332 1.97407 13.1927 1.72402 12.9426C1.47397 12.6926 1.3335 12.3535 1.3335 11.9998V5.99984C1.3335 5.64622 1.47397 5.30708 1.72402 5.05703C1.97407 4.80698 2.31321 4.6665 2.66683 4.6665H3.99816C4.23844 4.66652 4.47426 4.6016 4.68068 4.47861C4.8871 4.35563 5.05646 4.17915 5.17083 3.96784L5.49683 3.36517C5.6112 3.15386 5.78055 2.97738 5.98698 2.85439C6.1934 2.73141 6.42922 2.66649 6.6695 2.6665H9.3315Z" stroke="white" stroke-width="1.33333" stroke-linecap="round" stroke-linejoin="round"/>
<path d="M8 10.6665C9.10457 10.6665 10 9.77107 10 8.6665C10 7.56193 9.10457 6.6665 8 6.6665C6.89543 6.6665 6 7.56193 6 8.6665C6 9.77107 6.89543 10.6665 8 10.6665Z" stroke="white" stroke-width="1.33333" stroke-linecap="round" stroke-linejoin="round"/>
</svg>
