<svg width="20" height="20" viewBox="0 0 20 20" fill="none" xmlns="http://www.w3.org/2000/svg">
<path d="M12.6667 2.5C13.1063 2.50626 13.5256 2.68598 13.8333 3L17 6.16667C17.314 6.47438 17.4937 6.89372 17.5 7.33333V15.8333C17.5 16.2754 17.3244 16.6993 17.0118 17.0118C16.6993 17.3244 16.2754 17.5 15.8333 17.5H4.16667C3.72464 17.5 3.30072 17.3244 2.98816 17.0118C2.67559 16.6993 2.5 16.2754 2.5 15.8333V4.16667C2.5 3.72464 2.67559 3.30072 2.98816 2.98816C3.30072 2.67559 3.72464 2.5 4.16667 2.5H12.6667Z" stroke="white" stroke-width="1.66667" stroke-linecap="round" stroke-linejoin="round"/>
<path d="M14.1668 17.5002V11.6668C14.1668 11.4458 14.079 11.2339 13.9228 11.0776C13.7665 10.9213 13.5545 10.8335 13.3335 10.8335H6.66683C6.44582 10.8335 6.23385 10.9213 6.07757 11.0776C5.92129 11.2339 5.8335 11.4458 5.8335 11.6668V17.5002" stroke="white" stroke-width="1.66667" stroke-linecap="round" stroke-linejoin="round"/>
<path d="M5.8335 2.5V5.83333C5.8335 6.05435 5.92129 6.26631 6.07757 6.42259C6.23385 6.57887 6.44582 6.66667 6.66683 6.66667H12.5002" stroke="white" stroke-width="1.66667" stroke-linecap="round" stroke-linejoin="round"/>
</svg>
