<svg width="64" height="64" viewBox="0 0 64 64" fill="none" xmlns="http://www.w3.org/2000/svg">
<path d="M0 16C0 7.16344 7.16344 0 16 0H48C56.8366 0 64 7.16344 64 16V48C64 56.8366 56.8366 64 48 64H16C7.16344 64 0 56.8366 0 48V16Z" fill="url(#paint0_linear_3_6)"/>
<path d="M19.9892 37.7893C20.1853 38.2838 20.2289 38.8257 20.1146 39.3453L18.6946 43.7319C18.6488 43.9544 18.6607 44.1848 18.7289 44.4014C18.7972 44.6181 18.9197 44.8136 19.0848 44.9696C19.2499 45.1256 19.4521 45.2368 19.6722 45.2928C19.8923 45.3487 20.1231 45.3475 20.3426 45.2893L24.8932 43.9586C25.3835 43.8613 25.8913 43.9038 26.3586 44.0813C29.2058 45.4109 32.4311 45.6922 35.4654 44.8755C38.4998 44.0589 41.1483 42.1968 42.9435 39.6177C44.7388 37.0387 45.5654 33.9085 45.2776 30.7793C44.9899 27.6502 43.6062 24.7232 41.3707 22.5148C39.1352 20.3065 36.1915 18.9586 33.0591 18.7091C29.9267 18.4596 26.8068 19.3244 24.2498 21.151C21.6929 22.9776 19.8633 25.6486 19.0838 28.6928C18.3043 31.7369 18.6249 34.9585 19.9892 37.7893Z" stroke="white" stroke-width="2.66667" stroke-linecap="round" stroke-linejoin="round"/>
<defs>
<linearGradient id="paint0_linear_3_6" x1="0" y1="0" x2="64" y2="64" gradientUnits="userSpaceOnUse">
<stop stop-color="#AD46FF"/>
<stop offset="0.5" stop-color="#F6339A"/>
<stop offset="1" stop-color="#2B7FFF"/>
</linearGradient>
</defs>
</svg>
