<svg width="16" height="24" viewBox="0 0 16 24" fill="none" xmlns="http://www.w3.org/2000/svg">
<path d="M14.8594 12.1016C14.8594 13.0703 14.7109 13.9453 14.4141 14.7266C14.112 15.513 13.6927 16.1198 13.1562 16.5469C12.625 16.974 12.0286 17.1875 11.3672 17.1875C10.8516 17.1875 10.4531 17.0729 10.1719 16.8438C9.89062 16.6146 9.75 16.2708 9.75 15.8125C9.75521 15.724 9.75781 15.6328 9.75781 15.5391C9.76302 15.4453 9.76823 15.3542 9.77344 15.2656H9.72656C9.38281 15.9062 8.95573 16.388 8.44531 16.7109C7.9401 17.0286 7.39323 17.1875 6.80469 17.1875C5.98698 17.1875 5.35156 16.9219 4.89844 16.3906C4.45052 15.8594 4.22656 15.1224 4.22656 14.1797C4.22656 13.3307 4.39583 12.5365 4.73438 11.7969C5.07292 11.0625 5.54167 10.4792 6.14062 10.0469C6.74479 9.61458 7.41406 9.39844 8.14844 9.39844C9.28385 9.39844 10.0677 9.8724 10.5 10.8203H10.5469L10.8516 9.57031H12.0703L11.1641 13.5234C10.9714 14.362 10.875 15.0208 10.875 15.5C10.875 15.7448 10.9271 15.9297 11.0312 16.0547C11.1406 16.1745 11.2995 16.2344 11.5078 16.2344C11.9297 16.2344 12.3151 16.0547 12.6641 15.6953C13.0182 15.3359 13.2943 14.8411 13.4922 14.2109C13.6953 13.5807 13.7969 12.8828 13.7969 12.1172C13.7969 11.1901 13.5964 10.362 13.1953 9.63281C12.7943 8.91406 12.2161 8.36198 11.4609 7.97656C10.7057 7.58594 9.82292 7.39062 8.8125 7.39062C7.55729 7.39062 6.44271 7.66927 5.46875 8.22656C4.5 8.78385 3.73958 9.58854 3.1875 10.6406C2.63542 11.6875 2.35938 12.862 2.35938 14.1641C2.35938 15.1745 2.5651 16.0599 2.97656 16.8203C3.38281 17.5911 3.97135 18.1823 4.74219 18.5938C5.51823 19.0052 6.42188 19.2109 7.45312 19.2109C8.20833 19.2109 8.97396 19.112 9.75 18.9141C10.526 18.7214 11.3307 18.3984 12.1641 17.9453L12.5938 18.8203C11.8385 19.2734 11.0182 19.6172 10.1328 19.8516C9.2526 20.0911 8.35938 20.2109 7.45312 20.2109C6.19792 20.2109 5.10156 19.9609 4.16406 19.4609C3.22135 18.9661 2.5 18.2604 2 17.3438C1.50521 16.4219 1.25781 15.362 1.25781 14.1641C1.25781 12.7109 1.58333 11.3854 2.23438 10.1875C2.88542 8.99479 3.78385 8.06771 4.92969 7.40625C6.08073 6.73958 7.36979 6.40625 8.79688 6.40625C10.0521 6.40625 11.1354 6.64062 12.0469 7.10938C12.9583 7.58333 13.6536 8.25 14.1328 9.10938C14.6172 9.96875 14.8594 10.9661 14.8594 12.1016ZM10.125 12.1641C10.125 11.6328 9.95312 11.2057 9.60938 10.8828C9.26562 10.5547 8.80729 10.3906 8.23438 10.3906C7.70833 10.3906 7.23958 10.5573 6.82812 10.8906C6.42188 11.2188 6.10156 11.6771 5.86719 12.2656C5.63281 12.849 5.51562 13.4818 5.51562 14.1641C5.51562 14.7891 5.63802 15.2786 5.88281 15.6328C6.13281 15.987 6.51562 16.1641 7.03125 16.1641C7.4375 16.1641 7.82552 16.0521 8.19531 15.8281C8.57031 15.6042 8.90104 15.3021 9.1875 14.9219C9.39062 14.651 9.5599 14.3411 9.69531 13.9922C9.83594 13.6432 9.94271 13.3047 10.0156 12.9766C10.0885 12.6432 10.125 12.3724 10.125 12.1641Z" fill="#99A1AF"/>
</svg>
