<svg width="20" height="20" viewBox="0 0 20 20" fill="none" xmlns="http://www.w3.org/2000/svg">
<path d="M9.99984 10.8332C10.4601 10.8332 10.8332 10.4601 10.8332 9.99984C10.8332 9.5396 10.4601 9.1665 9.99984 9.1665C9.5396 9.1665 9.1665 9.5396 9.1665 9.99984C9.1665 10.4601 9.5396 10.8332 9.99984 10.8332Z" stroke="#4A5565" stroke-width="1.66667" stroke-linecap="round" stroke-linejoin="round"/>
<path d="M15.8333 10.8332C16.2936 10.8332 16.6667 10.4601 16.6667 9.99984C16.6667 9.5396 16.2936 9.1665 15.8333 9.1665C15.3731 9.1665 15 9.5396 15 9.99984C15 10.4601 15.3731 10.8332 15.8333 10.8332Z" stroke="#4A5565" stroke-width="1.66667" stroke-linecap="round" stroke-linejoin="round"/>
<path d="M4.16683 10.8332C4.62707 10.8332 5.00016 10.4601 5.00016 9.99984C5.00016 9.5396 4.62707 9.1665 4.16683 9.1665C3.70659 9.1665 3.3335 9.5396 3.3335 9.99984C3.3335 10.4601 3.70659 10.8332 4.16683 10.8332Z" stroke="#4A5565" stroke-width="1.66667" stroke-linecap="round" stroke-linejoin="round"/>
</svg>
