<svg width="14" height="14" viewBox="0 0 14 14" fill="none" xmlns="http://www.w3.org/2000/svg">
<g clip-path="url(#clip0_3_827)">
<path d="M1.16669 5.54149C1.1667 4.89235 1.36362 4.25849 1.73143 3.72362C2.09925 3.18875 2.62066 2.77804 3.22679 2.54572C3.83293 2.3134 4.49528 2.27041 5.12636 2.42243C5.75744 2.57445 6.32757 2.91432 6.76144 3.39715C6.792 3.42983 6.82894 3.45588 6.86998 3.47369C6.91102 3.4915 6.95528 3.50069 7.00002 3.50069C7.04476 3.50069 7.08902 3.4915 7.13006 3.47369C7.1711 3.45588 7.20804 3.42983 7.2386 3.39715C7.67111 2.91118 8.24137 2.56845 8.87347 2.41459C9.50558 2.26072 10.1696 2.30302 10.777 2.53585C11.3845 2.76868 11.9067 3.181 12.274 3.71793C12.6413 4.25486 12.8365 4.89093 12.8334 5.54149C12.8334 6.87732 11.9584 7.87482 11.0834 8.74982L7.87969 11.8491C7.77099 11.9739 7.63698 12.0742 7.48655 12.1432C7.33612 12.2123 7.17271 12.2486 7.00719 12.2496C6.84167 12.2507 6.67781 12.2165 6.52652 12.1493C6.37523 12.0822 6.23995 11.9836 6.12969 11.8602L2.91669 8.74982C2.04169 7.87482 1.16669 6.88315 1.16669 5.54149Z" stroke="#6A7282" stroke-width="1.16667" stroke-linecap="round" stroke-linejoin="round"/>
</g>
<defs>
<clipPath id="clip0_3_827">
<rect width="14" height="14" fill="white"/>
</clipPath>
</defs>
</svg>
