<svg width="18" height="18" viewBox="0 0 18 18" fill="none" xmlns="http://www.w3.org/2000/svg">
<g clip-path="url(#clip0_3_134)">
<path d="M10.902 16.2644C10.9305 16.3354 10.98 16.396 11.044 16.4381C11.1079 16.4801 11.1831 16.5016 11.2596 16.4997C11.3361 16.4977 11.4102 16.4724 11.4719 16.4271C11.5336 16.3818 11.5799 16.3188 11.6048 16.2464L16.4798 1.99642C16.5038 1.92997 16.5083 1.85805 16.493 1.78909C16.4776 1.72012 16.4429 1.65697 16.3929 1.607C16.343 1.55704 16.2798 1.52234 16.2108 1.50696C16.1419 1.49159 16.07 1.49617 16.0035 1.52017L1.75351 6.39517C1.68113 6.41999 1.61808 6.46636 1.57281 6.52805C1.52755 6.58974 1.50223 6.6638 1.50028 6.74029C1.49832 6.81678 1.5198 6.89204 1.56185 6.95597C1.6039 7.01989 1.66449 7.06943 1.73551 7.09792L7.68301 9.48292C7.87102 9.5582 8.04185 9.67077 8.18518 9.81384C8.32852 9.95692 8.44139 10.1275 8.51701 10.3154L10.902 16.2644Z" stroke="white" stroke-width="1.5" stroke-linecap="round" stroke-linejoin="round"/>
<path d="M16.3905 1.61035L8.1855 9.8146" stroke="white" stroke-width="1.5" stroke-linecap="round" stroke-linejoin="round"/>
</g>
<defs>
<clipPath id="clip0_3_134">
<rect width="18" height="18" fill="white"/>
</clipPath>
</defs>
</svg>
