<svg width="18" height="18" viewBox="0 0 18 18" fill="none" xmlns="http://www.w3.org/2000/svg">
<path d="M15.8805 5.1088C16.277 4.71236 16.4998 4.17465 16.4999 3.61394C16.4999 3.05323 16.2773 2.51545 15.8808 2.11892C15.4844 1.72239 14.9467 1.49958 14.386 1.49951C13.8253 1.49944 13.2875 1.72212 12.891 2.11855L2.88145 12.1303C2.70732 12.3039 2.57854 12.5177 2.50645 12.7528L1.5157 16.0168C1.49632 16.0817 1.49485 16.1506 1.51146 16.2162C1.52807 16.2818 1.56214 16.3417 1.61005 16.3895C1.65796 16.4374 1.71792 16.4713 1.78357 16.4879C1.84922 16.5044 1.91812 16.5028 1.98295 16.4833L5.2477 15.4933C5.48258 15.4219 5.69633 15.2939 5.8702 15.1205L15.8805 5.1088Z" stroke="#364153" stroke-width="1.5" stroke-linecap="round" stroke-linejoin="round"/>
</svg>
