<svg width="40" height="40" viewBox="0 0 40 40" fill="none" xmlns="http://www.w3.org/2000/svg">
<path d="M0 14C0 6.26801 6.26801 0 14 0H26C33.732 0 40 6.26801 40 14V26C40 33.732 33.732 40 26 40H14C6.26801 40 0 33.732 0 26V14Z" fill="url(#paint0_linear_30_2209)"/>
<path d="M10.9922 24.3422C11.1392 24.7131 11.172 25.1195 11.0862 25.5092L10.0212 28.7992C9.98686 28.966 9.99574 29.1389 10.047 29.3013C10.0982 29.4638 10.19 29.6105 10.3138 29.7275C10.4377 29.8445 10.5893 29.9279 10.7544 29.9698C10.9195 30.0118 11.0925 30.0109 11.2572 29.9672L14.6702 28.9692C15.0379 28.8962 15.4187 28.9281 15.7692 29.0612C17.9046 30.0584 20.3235 30.2694 22.5993 29.6569C24.8751 29.0444 26.8614 27.6478 28.2079 25.7136C29.5543 23.7793 30.1743 21.4316 29.9585 19.0847C29.7427 16.7379 28.7049 14.5427 27.0282 12.8864C25.3516 11.2301 23.1439 10.2192 20.7946 10.0321C18.4452 9.84494 16.1053 10.4936 14.1876 11.8635C12.2699 13.2335 10.8977 15.2367 10.3131 17.5198C9.72843 19.8029 9.96895 22.2191 10.9922 24.3422Z" stroke="white" stroke-width="2" stroke-linecap="round" stroke-linejoin="round"/>
<defs>
<linearGradient id="paint0_linear_30_2209" x1="0" y1="0" x2="40" y2="40" gradientUnits="userSpaceOnUse">
<stop stop-color="#AD46FF"/>
<stop offset="0.5" stop-color="#F6339A"/>
<stop offset="1" stop-color="#2B7FFF"/>
</linearGradient>
</defs>
</svg>
