<svg width="20" height="20" viewBox="0 0 20 20" fill="none" xmlns="http://www.w3.org/2000/svg">
<g clip-path="url(#clip0_30_2393)">
<path d="M13.3247 17.489V15.8234C13.3247 14.9399 12.9738 14.0926 12.349 13.4679C11.7243 12.8432 10.877 12.4922 9.99354 12.4922H4.99677C4.11329 12.4922 3.26599 12.8432 2.64127 13.4679C2.01655 14.0926 1.66559 14.9399 1.66559 15.8234V17.489" stroke="#4A5565" stroke-width="1.66559" stroke-linecap="round" stroke-linejoin="round"/>
<path d="M7.49518 9.16041C9.33494 9.16041 10.8264 7.66899 10.8264 5.82923C10.8264 3.98947 9.33494 2.49805 7.49518 2.49805C5.65542 2.49805 4.164 3.98947 4.164 5.82923C4.164 7.66899 5.65542 9.16041 7.49518 9.16041Z" stroke="#4A5565" stroke-width="1.66559" stroke-linecap="round" stroke-linejoin="round"/>
<path d="M15.8231 6.66211V11.6589" stroke="#4A5565" stroke-width="1.66559" stroke-linecap="round" stroke-linejoin="round"/>
<path d="M18.3215 9.16113H13.3247" stroke="#4A5565" stroke-width="1.66559" stroke-linecap="round" stroke-linejoin="round"/>
</g>
<defs>
<clipPath id="clip0_30_2393">
<rect width="19.9871" height="19.9871" fill="white"/>
</clipPath>
</defs>
</svg>
